<svg xmlns="http://www.w3.org/2000/svg" xmlns:xlink="http://www.w3.org/1999/xlink" width="500" zoomAndPan="magnify" viewBox="0 0 375 374.999991" height="500" preserveAspectRatio="xMidYMid meet" version="1.0"><defs><clipPath id="4cc421cfd1"><path d="M 85.050781 85.050781 L 289.800781 85.050781 L 289.800781 282 L 85.050781 282 Z M 85.050781 85.050781 " clip-rule="nonzero"/></clipPath><clipPath id="d0221b95b7"><path d="M 154 268 L 221 268 L 221 289.800781 L 154 289.800781 Z M 154 268 " clip-rule="nonzero"/></clipPath></defs><g clip-path="url(#4cc421cfd1)"><path fill="#ffd800" d="M 281.75 147.574219 C 280.464844 144.539062 279.039062 141.578125 277.46875 138.683594 C 275.898438 135.789062 274.191406 132.976562 272.351562 130.246094 C 270.511719 127.515625 268.542969 124.878906 266.449219 122.339844 C 264.355469 119.796875 262.144531 117.363281 259.816406 115.035156 C 257.484375 112.707031 255.050781 110.496094 252.511719 108.402344 C 249.96875 106.308594 247.332031 104.339844 244.601562 102.5 C 241.875 100.65625 239.0625 98.953125 236.167969 97.382812 C 233.273438 95.8125 230.308594 94.382812 227.277344 93.097656 C 214.648438 87.757812 201.242188 85.050781 187.425781 85.050781 C 173.605469 85.050781 160.199219 87.757812 147.574219 93.097656 C 144.539062 94.382812 141.578125 95.808594 138.683594 97.378906 C 135.789062 98.949219 132.976562 100.65625 130.246094 102.496094 C 127.515625 104.335938 124.878906 106.304688 122.339844 108.398438 C 119.796875 110.492188 117.363281 112.703125 115.035156 115.035156 C 112.707031 117.363281 110.496094 119.796875 108.402344 122.335938 C 106.308594 124.878906 104.339844 127.515625 102.5 130.246094 C 100.65625 132.976562 98.953125 135.789062 97.382812 138.683594 C 95.8125 141.574219 94.382812 144.539062 93.097656 147.570312 C 87.757812 160.199219 85.050781 173.605469 85.050781 187.425781 C 85.050781 201.242188 87.757812 214.648438 93.097656 227.277344 C 95.515625 232.984375 98.429688 238.425781 101.835938 243.605469 C 105.238281 248.785156 109.082031 253.617188 113.359375 258.101562 C 117.640625 262.585938 122.289062 266.648438 127.304688 270.292969 C 132.316406 273.9375 137.617188 277.097656 143.207031 279.78125 L 145.917969 281.082031 L 145.917969 264.714844 L 145.859375 264.683594 L 145.859375 168.546875 C 145.992188 159.402344 153.488281 151.964844 162.570312 151.964844 C 171.652344 151.964844 179.148438 159.402344 179.28125 168.546875 L 179.28125 230.882812 C 179.273438 231.78125 179.414062 232.660156 179.699219 233.511719 C 179.984375 234.363281 180.402344 235.148438 180.949219 235.863281 C 181.496094 236.578125 182.144531 237.183594 182.894531 237.679688 C 183.644531 238.175781 184.453125 238.539062 185.324219 238.765625 C 186.195312 238.992188 187.078125 239.074219 187.972656 239.003906 C 188.871094 238.9375 189.734375 238.726562 190.558594 238.371094 C 191.386719 238.015625 192.132812 237.535156 192.796875 236.929688 C 193.464844 236.324219 194.011719 235.628906 194.445312 234.839844 C 195.191406 233.691406 195.566406 232.363281 195.566406 230.882812 L 195.566406 168.546875 C 195.703125 159.402344 203.195312 151.964844 212.277344 151.964844 C 221.359375 151.964844 228.855469 159.402344 228.988281 168.546875 L 228.988281 264.679688 L 228.921875 264.714844 L 228.921875 281.082031 L 231.632812 279.785156 C 237.222656 277.101562 242.523438 273.941406 247.539062 270.296875 C 252.554688 266.652344 257.203125 262.589844 261.484375 258.105469 C 265.765625 253.621094 269.605469 248.789062 273.011719 243.605469 C 276.417969 238.425781 279.332031 232.984375 281.75 227.277344 C 287.089844 214.648438 289.800781 201.242188 289.800781 187.425781 C 289.800781 173.605469 287.089844 160.199219 281.75 147.574219 Z M 245.257812 253.351562 L 245.132812 168.515625 C 245.058594 159.765625 241.617188 151.550781 235.433594 145.390625 C 233.914062 143.867188 232.261719 142.507812 230.472656 141.3125 C 228.6875 140.121094 226.796875 139.113281 224.8125 138.289062 C 222.824219 137.46875 220.773438 136.851562 218.664062 136.4375 C 216.554688 136.019531 214.425781 135.816406 212.273438 135.820312 C 202.667969 135.820312 193.734375 139.941406 187.417969 147.210938 C 181.144531 140.039062 172.023438 135.820312 162.566406 135.820312 C 153.820312 135.820312 145.574219 139.21875 139.34375 145.386719 C 133.117188 151.558594 129.644531 159.773438 129.570312 168.535156 L 129.570312 253.332031 C 110.527344 236.621094 99.683594 212.824219 99.683594 187.425781 C 99.683594 139.046875 139.042969 99.6875 187.421875 99.6875 C 235.800781 99.6875 275.160156 139.046875 275.160156 187.425781 C 275.160156 212.835938 264.3125 236.640625 245.257812 253.351562 Z M 245.257812 253.351562 " fill-opacity="1" fill-rule="nonzero"/></g><g clip-path="url(#d0221b95b7)"><path fill="#ffd800" d="M 187.425781 275.164062 C 177.046875 275.175781 166.988281 273.390625 157.25 269.8125 L 154.699219 268.878906 L 154.699219 284.46875 L 156.015625 284.890625 C 161.089844 286.515625 166.261719 287.742188 171.527344 288.5625 C 176.792969 289.386719 182.089844 289.796875 187.417969 289.796875 C 192.75 289.796875 198.046875 289.386719 203.3125 288.5625 C 208.578125 287.742188 213.75 286.515625 218.824219 284.890625 L 220.136719 284.46875 L 220.136719 268.882812 L 217.585938 269.816406 C 207.851562 273.390625 197.796875 275.175781 187.425781 275.164062 Z M 187.425781 275.164062 " fill-opacity="1" fill-rule="nonzero"/></g></svg>